<?xml version="1.0" encoding="UTF-8"?>
<!DOCTYPE svg PUBLIC "-//W3C//DTD SVG 1.1//EN" "http://www.w3.org/Graphics/SVG/1.1/DTD/svg11.dtd">
<svg xmlns="http://www.w3.org/2000/svg" version="1.1" width="512px" height="512px" style="shape-rendering:geometricPrecision; text-rendering:geometricPrecision; image-rendering:optimizeQuality; fill-rule:evenodd; clip-rule:evenodd" xmlns:xlink="http://www.w3.org/1999/xlink">
<g><path style="opacity:0.999" fill="#fefefe" d="M 40.5,-0.5 C 183.833,-0.5 327.167,-0.5 470.5,-0.5C 491.833,5.5 505.5,19.1667 511.5,40.5C 511.5,183.833 511.5,327.167 511.5,470.5C 505.5,491.833 491.833,505.5 470.5,511.5C 327.167,511.5 183.833,511.5 40.5,511.5C 19.1667,505.5 5.5,491.833 -0.5,470.5C -0.5,327.167 -0.5,183.833 -0.5,40.5C 5.5,19.1667 19.1667,5.5 40.5,-0.5 Z"/></g>
<g><path style="opacity:1" fill="#232323" d="M 215.5,237.5 C 215.905,230.077 216.905,222.743 218.5,215.5C 219.224,212.917 220.057,210.251 221,207.5C 221.167,208.667 221.333,209.833 221.5,211C 221.01,223.887 220.176,236.72 219,249.5C 218.5,268.164 218.333,286.83 218.5,305.5C 217.871,308.343 216.871,311.176 215.5,314C 216.551,315.577 217.551,317.077 218.5,318.5C 217.882,344.029 217.882,369.696 218.5,395.5C 218.159,400.231 217.492,404.898 216.5,409.5C 218.297,411.131 219.464,413.131 220,415.5C 220.905,424.159 221.238,432.826 221,441.5C 219.938,444.064 218.104,445.731 215.5,446.5C 212.162,445.835 209.495,444.168 207.5,441.5C 204.585,442.704 202.419,444.704 201,447.5C 200.501,451.152 200.335,454.818 200.5,458.5C 199.167,458.5 197.833,458.5 196.5,458.5C 196.167,460.5 195.833,462.5 195.5,464.5C 192.185,464.028 189.851,462.195 188.5,459C 185.542,458.771 183.042,457.604 181,455.5C 178.919,449.673 175.586,444.673 171,440.5C 165.837,430.258 165.337,419.925 169.5,409.5C 170.199,393.223 170.199,376.89 169.5,360.5C 169.839,354.133 170.506,347.799 171.5,341.5C 171.094,323.665 170.761,305.832 170.5,288C 170.98,269.145 171.647,250.311 172.5,231.5C 171.003,227.838 169.503,224.172 168,220.5C 167.154,216.916 167.654,213.583 169.5,210.5C 168.778,208.056 167.778,205.722 166.5,203.5C 167.274,202.289 168.107,202.289 169,203.5C 169.896,198.184 168.729,193.35 165.5,189C 163.087,188.516 160.754,188.85 158.5,190C 153.999,192.416 149.666,195.083 145.5,198C 135.305,209.525 125.138,221.025 115,232.5C 106.533,247.767 98.8664,263.434 92,279.5C 92.2935,285.007 90.9602,290.007 88,294.5C 84.4066,307.022 81.4066,319.689 79,332.5C 78.168,340.483 77.668,348.483 77.5,356.5C 74.6354,356.055 72.1354,356.722 70,358.5C 69.5002,367.494 69.3336,376.494 69.5,385.5C 71.6547,385.628 73.6547,385.128 75.5,384C 84.6667,370.833 95.8333,359.667 109,350.5C 114.935,343.634 119.602,335.967 123,327.5C 124.444,325.845 126.278,325.178 128.5,325.5C 130.148,318.553 133.648,312.553 139,307.5C 140.832,303.679 142.166,299.679 143,295.5C 145.476,291.697 146.81,292.363 147,297.5C 148.019,296.313 149.186,295.313 150.5,294.5C 151.031,297.099 151.198,299.765 151,302.5C 152.88,298.727 154.213,294.727 155,290.5C 157.395,289.202 158.562,290.035 158.5,293C 157.517,296.112 156.85,299.278 156.5,302.5C 159.482,302.896 162.149,302.229 164.5,300.5C 165.287,301.242 165.953,302.075 166.5,303C 163.937,305.53 161.103,307.697 158,309.5C 152.511,322.789 146.844,335.789 141,348.5C 143.826,345.516 146.159,342.183 148,338.5C 147.975,340.92 147.309,343.253 146,345.5C 138.437,351.63 133.103,359.297 130,368.5C 121.957,377.541 114.291,386.874 107,396.5C 104.333,401.167 101.667,405.833 99,410.5C 97.9266,414.084 97.2599,417.75 97,421.5C 94.4493,425.634 92.2827,425.467 90.5,421C 89.2068,420.51 87.8734,420.343 86.5,420.5C 87.2682,424.83 85.9349,428.163 82.5,430.5C 79.5,428.333 76.5,426.167 73.5,424C 71.6226,423.424 69.7892,423.591 68,424.5C 66.5232,423.556 65.5232,422.223 65,420.5C 63.9805,421.687 62.8139,422.687 61.5,423.5C 59.2324,422.456 56.8991,422.289 54.5,423C 55.7588,423.923 57.0921,424.757 58.5,425.5C 56.5333,428.012 56.2,430.679 57.5,433.5C 55.5787,434.641 53.5787,434.808 51.5,434C 44.8019,430.239 43.1352,424.906 46.5,418C 46.1667,417.5 45.8333,417 45.5,416.5C 40.9559,419.38 40.2893,418.546 43.5,414C 43.0946,413.055 42.428,412.388 41.5,412C 42.6872,410.981 43.6872,409.814 44.5,408.5C 43.1667,406.833 41.8333,405.167 40.5,403.5C 44.6646,399.469 43.8312,396.803 38,395.5C 37.9318,388.989 36.9318,382.656 35,376.5C 32.4157,337.834 37.4157,300.167 50,263.5C 62.7619,239.931 77.2619,217.598 93.5,196.5C 94.9452,191.337 96.2785,186.17 97.5,181C 96.5511,176.846 96.0511,172.679 96,168.5C 98.4321,167.55 100.932,167.55 103.5,168.5C 103.351,167.448 103.517,166.448 104,165.5C 108.955,171.275 111.122,170.275 110.5,162.5C 112.677,162.586 114.677,163.253 116.5,164.5C 117.428,158.604 120.928,156.271 127,157.5C 129.167,157.667 131.333,157.833 133.5,158C 137.698,162.145 142.365,162.645 147.5,159.5C 156.621,162.175 165.954,163.175 175.5,162.5C 177.384,141.215 177.884,119.882 177,98.5C 175.087,94.7413 174.253,90.7413 174.5,86.5C 174.817,81.1497 175.317,75.8164 176,70.5C 177.019,71.6872 178.186,72.6872 179.5,73.5C 179.73,69.8459 180.063,66.1792 180.5,62.5C 182.776,61.7868 185.109,61.2868 187.5,61C 189.004,57.6559 191.004,54.6559 193.5,52C 196.825,52.2249 199.158,50.8916 200.5,48C 205.711,46.896 209.378,48.7293 211.5,53.5C 213.527,52.3067 215.027,50.64 216,48.5C 217.585,54.6707 220.918,59.6707 226,63.5C 226.497,66.146 226.664,68.8127 226.5,71.5C 227.5,71.5 228.5,71.5 229.5,71.5C 229.481,74.6593 230.648,77.326 233,79.5C 231.923,87.1663 234.256,93.4996 240,98.5C 240.965,104.657 240.465,110.657 238.5,116.5C 239.024,118.383 239.691,120.216 240.5,122C 239.352,123.726 238.185,123.559 237,121.5C 234.729,125.898 233.062,130.564 232,135.5C 227.793,157.354 224.46,179.354 222,201.5C 221.308,200.975 220.808,200.308 220.5,199.5C 223.529,193.317 222.862,187.65 218.5,182.5C 217.669,175.524 217.169,168.524 217,161.5C 215.844,160.007 215.01,160.174 214.5,162C 211.728,166.405 211.062,171.071 212.5,176C 211.084,188.526 209.751,201.026 208.5,213.5C 209.07,265.647 209.07,317.813 208.5,370C 208.765,380.511 209.265,391.011 210,401.5C 210.667,402.833 211.333,404.167 212,405.5C 212.29,403.048 212.956,400.715 214,398.5C 214.8,394.764 214.3,391.264 212.5,388C 213.94,384.621 214.94,381.121 215.5,377.5C 215.918,374.729 214.918,372.729 212.5,371.5C 214.963,368.665 215.13,365.665 213,362.5C 212.823,332.821 212.656,303.155 212.5,273.5C 214.815,261.653 215.815,249.653 215.5,237.5 Z"/></g>
<g><path style="opacity:1" fill="#232323" d="M 436.5,457.5 C 435.167,457.5 433.833,457.5 432.5,457.5C 432.5,459.167 432.5,460.833 432.5,462.5C 431.998,464.085 430.998,464.585 429.5,464C 427.981,462.649 426.648,461.149 425.5,459.5C 418.39,457.552 414.223,452.885 413,445.5C 407.586,441.651 404.586,436.318 404,429.5C 403.333,424.5 403.333,419.5 404,414.5C 406.601,412.033 407.101,409.2 405.5,406C 407.258,346.522 408.092,287.022 408,227.5C 404.099,222.319 403.599,216.819 406.5,211C 405.402,208.54 404.402,206.04 403.5,203.5C 403.938,202.494 404.604,202.494 405.5,203.5C 406.507,198.328 405.507,193.495 402.5,189C 400.087,188.516 397.754,188.85 395.5,190C 383.923,195.526 374.756,203.693 368,214.5C 360.363,220.116 354.363,227.116 350,235.5C 342.454,249.924 335.454,264.59 329,279.5C 329.249,284.68 327.915,289.347 325,293.5C 323.603,300.69 321.603,307.69 319,314.5C 318.619,321.356 317.286,328.023 315,334.5C 314.372,341.829 313.872,349.163 313.5,356.5C 311.208,356.244 309.041,356.577 307,357.5C 305.682,366.838 305.516,376.172 306.5,385.5C 308.655,385.628 310.655,385.128 312.5,384C 315.788,379.923 318.955,375.756 322,371.5C 330.667,363.5 339.333,355.5 348,347.5C 352.424,341.658 356.091,335.324 359,328.5C 360.532,326.438 362.532,325.104 365,324.5C 367.721,317.4 371.721,311.066 377,305.5C 377.72,301.284 379.053,297.284 381,293.5C 381.667,292.167 382.333,292.167 383,293.5C 383.333,294.833 383.667,296.167 384,297.5C 384.908,295.561 386.408,294.561 388.5,294.5C 388.414,296.677 387.747,298.677 386.5,300.5C 386.808,301.308 387.308,301.975 388,302.5C 389.754,298.675 391.087,294.675 392,290.5C 394.29,289.59 395.456,290.59 395.5,293.5C 394.202,296.422 393.202,299.422 392.5,302.5C 394.527,302.662 396.527,302.495 398.5,302C 399.849,301.228 400.682,300.061 401,298.5C 401.707,300.081 402.54,301.581 403.5,303C 400.667,305.167 397.833,307.333 395,309.5C 389.577,322.18 383.743,334.68 377.5,347C 378.102,348.563 378.935,348.396 380,346.5C 381.271,343.567 382.938,340.901 385,338.5C 383.786,345.082 380.119,350.082 374,353.5C 370.412,361.685 366.079,369.352 361,376.5C 350.074,386.776 341.407,398.776 335,412.5C 334.667,415.5 334.333,418.5 334,421.5C 331.72,425.412 329.553,425.412 327.5,421.5C 326.311,420.571 324.978,420.238 323.5,420.5C 324.423,424.849 323.09,428.183 319.5,430.5C 316.36,428.527 313.36,426.36 310.5,424C 308.231,423.242 306.064,423.409 304,424.5C 302.956,423.377 302.29,422.044 302,420.5C 300.938,421.899 299.605,422.899 298,423.5C 295.88,422.541 293.713,422.374 291.5,423C 292.623,424.044 293.956,424.71 295.5,425C 292.513,427.877 292.179,430.877 294.5,434C 292.5,434.667 290.5,434.667 288.5,434C 287.149,432.383 285.482,431.216 283.5,430.5C 282.667,428.833 281.833,427.167 281,425.5C 280.8,422.716 281.634,420.216 283.5,418C 283.167,417.5 282.833,417 282.5,416.5C 278.5,419.167 277.833,418.5 280.5,414.5C 278.539,413.152 278.372,411.819 280,410.5C 280.854,407.593 280.021,405.26 277.5,403.5C 280.923,398.828 279.923,396.161 274.5,395.5C 273.921,391.763 273.921,388.096 274.5,384.5C 272.985,382.453 272.151,380.119 272,377.5C 270.601,363.524 270.267,349.524 271,335.5C 273.421,313.809 277.755,292.476 284,271.5C 287.612,261.609 292.279,252.276 298,243.5C 307.925,227.314 318.591,211.647 330,196.5C 331.802,191.236 333.302,185.903 334.5,180.5C 333.055,176.614 332.555,172.614 333,168.5C 334.796,167.233 336.629,167.233 338.5,168.5C 339.281,167.271 339.781,165.938 340,164.5C 341.667,166.167 343.333,167.833 345,169.5C 347.103,167.697 347.936,165.364 347.5,162.5C 349.677,162.586 351.677,163.253 353.5,164.5C 354.428,158.604 357.928,156.271 364,157.5C 366.167,157.667 368.333,157.833 370.5,158C 374.698,162.145 379.365,162.645 384.5,159.5C 392.603,162.113 400.937,163.113 409.5,162.5C 410.209,163.404 411.209,163.737 412.5,163.5C 412.5,161.5 412.5,159.5 412.5,157.5C 413.067,150.664 413.734,143.831 414.5,137C 413.968,129.382 413.968,121.715 414.5,114C 414.333,109.167 414.167,104.333 414,99.5C 410.873,93.0335 410.04,86.3669 411.5,79.5C 412.167,76.8333 412.833,74.1667 413.5,71.5C 414.287,73.1042 415.62,73.7709 417.5,73.5C 417.206,69.9002 416.54,66.4002 415.5,63C 418.36,61.9239 421.36,61.0905 424.5,60.5C 425.666,57.4968 427.333,54.8302 429.5,52.5C 431.353,51.2404 433.186,51.2404 435,52.5C 436.902,47.2353 440.402,46.0687 445.5,49C 447.482,54.4349 449.815,54.2682 452.5,48.5C 454.758,54.6925 458.258,60.0258 463,64.5C 463.497,66.8098 463.663,69.1432 463.5,71.5C 464.5,71.5 465.5,71.5 466.5,71.5C 468.726,77.5572 470.226,83.8905 471,90.5C 472.608,93.772 474.608,96.772 477,99.5C 477.877,105.314 477.377,110.981 475.5,116.5C 475.594,118.689 476.261,120.689 477.5,122.5C 475.647,122.92 473.813,123.253 472,123.5C 470.667,128.167 469.333,132.833 468,137.5C 464.998,158.851 461.831,180.185 458.5,201.5C 458.404,196.592 458.237,191.592 458,186.5C 457.385,184.884 456.385,183.551 455,182.5C 454.667,175.833 454.333,169.167 454,162.5C 453.692,161.692 453.192,161.025 452.5,160.5C 451.416,161.665 450.583,162.998 450,164.5C 448.4,180.826 446.9,197.159 445.5,213.5C 445.393,270.468 445.56,327.468 446,384.5C 446.078,391.274 446.745,397.941 448,404.5C 448.333,404.833 448.667,405.167 449,405.5C 449.354,401.869 450.187,398.369 451.5,395C 450.687,392.54 450.02,390.04 449.5,387.5C 450.911,384.56 451.578,381.393 451.5,378C 451.346,375.621 450.68,373.454 449.5,371.5C 451.902,368.7 452.068,365.7 450,362.5C 448.044,338.523 448.21,314.689 450.5,291C 450.627,284.728 449.96,278.561 448.5,272.5C 449.559,267.147 450.726,261.814 452,256.5C 452.5,242.837 452.667,229.171 452.5,215.5C 453.5,215.5 454.5,215.5 455.5,215.5C 455.144,212.436 455.977,209.769 458,207.5C 454.903,270.128 454.07,332.794 455.5,395.5C 454.913,399.347 454.247,403.18 453.5,407C 454.49,410.162 455.656,413.329 457,416.5C 457.279,423.52 457.779,430.52 458.5,437.5C 456.319,447.801 451.653,449.134 444.5,441.5C 441.906,442.592 439.739,444.259 438,446.5C 437.76,450.252 437.26,453.919 436.5,457.5 Z"/></g>
<g><path style="opacity:1" fill="#4a4a4a" d="M 174.5,61.5 C 177.001,61.5109 177.168,62.1776 175,63.5C 174.536,62.9056 174.369,62.2389 174.5,61.5 Z"/></g>
<g><path style="opacity:1" fill="#696969" d="M 410.5,61.5 C 412.337,61.6395 412.67,62.3061 411.5,63.5C 410.702,63.0431 410.369,62.3764 410.5,61.5 Z"/></g>
<g><path style="opacity:1" fill="#8f8f8f" d="M 413.5,71.5 C 412.833,74.1667 412.167,76.8333 411.5,79.5C 411.183,76.4281 411.516,73.4281 412.5,70.5C 413.107,70.6236 413.44,70.9569 413.5,71.5 Z"/></g>
<g><path style="opacity:1" fill="#6c6c6c" d="M 412.5,157.5 C 412.5,159.5 412.5,161.5 412.5,163.5C 411.209,163.737 410.209,163.404 409.5,162.5C 411.028,161.198 412.028,159.531 412.5,157.5 Z"/></g>
<g><path style="opacity:1" fill="#575757" d="M 218.5,215.5 C 216.905,222.743 215.905,230.077 215.5,237.5C 215.5,230.167 215.5,222.833 215.5,215.5C 216.5,215.5 217.5,215.5 218.5,215.5 Z"/></g>
<g><path style="opacity:1" fill="#676767" d="M 403.5,226.5 C 404.809,230.351 404.809,234.351 403.5,238.5C 402.235,234.454 402.235,230.454 403.5,226.5 Z"/></g>
<g><path style="opacity:1" fill="#444444" d="M 166.5,226.5 C 167.809,230.351 167.809,234.351 166.5,238.5C 165.302,234.488 165.302,230.488 166.5,226.5 Z"/></g>
<g><path style="opacity:1" fill="#f5f5f5" d="M 177.5,232.5 C 178.167,235.833 178.833,239.167 179.5,242.5C 180.552,257.15 180.552,271.817 179.5,286.5C 178.833,284.167 178.167,281.833 177.5,279.5C 177.5,263.833 177.5,248.167 177.5,232.5 Z"/></g>
<g><path style="opacity:1" fill="#a0a0a0" d="M 179.5,242.5 C 178.833,239.167 178.167,235.833 177.5,232.5C 177.393,230.621 177.893,230.288 179,231.5C 179.499,235.152 179.665,238.818 179.5,242.5 Z"/></g>
<g><path style="opacity:1" fill="#4d4d4d" d="M 163.5,242.5 C 164.794,244.048 165.461,246.048 165.5,248.5C 165.11,253.511 164.61,258.511 164,263.5C 162.263,256.558 162.096,249.558 163.5,242.5 Z"/></g>
<g><path style="opacity:1" fill="#737373" d="M 404.5,263.5 C 404.737,262.209 404.404,261.209 403.5,260.5C 404.169,256.504 405.003,252.504 406,248.5C 406.388,253.706 405.888,258.706 404.5,263.5 Z"/></g>
<g><path style="opacity:1" fill="#3b3b3b" d="M 400.5,242.5 C 401.164,245.146 401.498,247.979 401.5,251C 401.625,254.355 401.125,257.522 400,260.5C 399.303,254.463 399.47,248.463 400.5,242.5 Z"/></g>
<g><path style="opacity:1" fill="#5a5a5a" d="M 168.5,250.5 C 169.764,252.772 169.598,255.105 168,257.5C 167.444,255.115 167.61,252.782 168.5,250.5 Z"/></g>
<g><path style="opacity:1" fill="#c7c7c7" d="M 419.5,261.5 C 421.273,262.314 421.773,263.648 421,265.5C 420.209,264.255 419.709,262.922 419.5,261.5 Z"/></g>
<g><path style="opacity:1" fill="#3a3a3a" d="M 167.5,259.5 C 168.208,263.102 167.708,266.769 166,270.5C 165.501,274.486 165.334,278.486 165.5,282.5C 163.401,283.231 161.401,283.231 159.5,282.5C 162.632,274.963 165.298,267.296 167.5,259.5 Z"/></g>
<g><path style="opacity:1" fill="#3f3f3f" d="M 146.5,266.5 C 150.705,266.891 152.538,269.225 152,273.5C 150.622,271.787 148.955,270.453 147,269.5C 146.517,268.552 146.351,267.552 146.5,266.5 Z"/></g>
<g><path style="opacity:1" fill="#2e2e2e" d="M 383.5,266.5 C 384.833,266.5 386.167,266.5 387.5,266.5C 389.657,272.698 388.49,273.698 384,269.5C 383.517,268.552 383.351,267.552 383.5,266.5 Z"/></g>
<g><path style="opacity:1" fill="#303030" d="M 403.5,260.5 C 404.404,261.209 404.737,262.209 404.5,263.5C 402.701,269.702 401.367,276.035 400.5,282.5C 399.264,283.246 397.93,283.579 396.5,283.5C 399.294,275.995 401.627,268.329 403.5,260.5 Z"/></g>
<g><path style="opacity:1" fill="#e6e6e6" d="M 417.5,328.5 C 415.72,329.99 415.054,331.99 415.5,334.5C 414.768,337.427 414.935,340.427 416,343.5C 420.667,346.5 420.667,349.5 416,352.5C 415.86,355.043 415.194,357.377 414,359.5C 413.266,355.193 412.766,350.86 412.5,346.5C 412.753,328.984 412.753,311.484 412.5,294C 412.625,292.373 413.125,290.873 414,289.5C 414.333,270.167 414.667,250.833 415,231.5C 415.265,237.594 416.099,243.594 417.5,249.5C 417.448,252.322 416.781,254.989 415.5,257.5C 416.447,259.059 417.113,260.726 417.5,262.5C 416.627,265.118 415.961,267.784 415.5,270.5C 417.975,275.684 418.141,281.017 416,286.5C 415.633,296.078 415.466,305.578 415.5,315C 416.444,316.477 417.777,317.477 419.5,318C 419.167,321 417.5,322.667 414.5,323C 416.16,324.488 417.16,326.321 417.5,328.5 Z"/></g>
<g><path style="opacity:1" fill="#f3f3f3" d="M 177.5,288.5 C 178.167,295.167 178.833,301.833 179.5,308.5C 178.97,312.397 179.97,315.73 182.5,318.5C 181.754,319.736 181.421,321.07 181.5,322.5C 180.325,322.281 179.325,322.614 178.5,323.5C 180.369,325.722 180.702,328.055 179.5,330.5C 178.566,331.568 178.232,332.901 178.5,334.5C 178.335,337.518 178.502,340.518 179,343.5C 183.533,346.589 183.533,349.589 179,352.5C 178.667,354.5 178.333,356.5 178,358.5C 177.667,357.833 177.333,357.167 177,356.5C 176.428,333.752 176.594,311.086 177.5,288.5 Z"/></g>
<g><path style="opacity:1" fill="#707070" d="M 177.5,279.5 C 178.167,281.833 178.833,284.167 179.5,286.5C 179.5,293.833 179.5,301.167 179.5,308.5C 178.833,301.833 178.167,295.167 177.5,288.5C 177.5,285.5 177.5,282.5 177.5,279.5 Z"/></g>
<g><path style="opacity:1" fill="#eaeaea" d="M 144.5,299.5 C 146.054,301.892 147.387,304.559 148.5,307.5C 146.194,309.139 144.194,311.139 142.5,313.5C 141.304,312.441 140.637,311.107 140.5,309.5C 141.644,306.064 142.977,302.73 144.5,299.5 Z"/></g>
<g><path style="opacity:1" fill="#f1f1f1" d="M 381.5,299.5 C 382.586,299.62 383.253,300.287 383.5,301.5C 381.765,304.197 382.431,306.03 385.5,307C 383.333,309.167 381.167,311.333 379,313.5C 378.125,312.127 377.625,310.627 377.5,309C 378.428,305.647 379.761,302.48 381.5,299.5 Z"/></g>
<g><path style="opacity:1" fill="#cacaca" d="M 420.5,304.5 C 422.145,305.479 423.479,306.812 424.5,308.5C 424.167,309.5 423.5,310.167 422.5,310.5C 421.523,308.589 420.857,306.589 420.5,304.5 Z"/></g>
<g><path style="opacity:1" fill="#dadada" d="M 184.5,305.5 C 187.701,306.839 188.035,308.506 185.5,310.5C 184.548,308.955 184.215,307.288 184.5,305.5 Z"/></g>
<g><path style="opacity:1" fill="#636363" d="M 218.5,305.5 C 218.5,309.833 218.5,314.167 218.5,318.5C 217.551,317.077 216.551,315.577 215.5,314C 216.871,311.176 217.871,308.343 218.5,305.5 Z"/></g>
<g><path style="opacity:1" fill="#e9e9e9" d="M 132.5,321.5 C 134.022,324.711 135.355,328.211 136.5,332C 135.507,333.967 133.84,335.134 131.5,335.5C 129.967,330.578 130.3,325.912 132.5,321.5 Z"/></g>
<g><path style="opacity:1" fill="#e8e8e8" d="M 369.5,321.5 C 370.994,324.941 372.327,328.608 373.5,332.5C 370.241,336.375 367.908,336.042 366.5,331.5C 366.9,327.88 367.9,324.547 369.5,321.5 Z"/></g>
<g><path style="opacity:1" fill="#999999" d="M 425.5,329.5 C 425.806,326.615 425.473,323.948 424.5,321.5C 424.393,319.621 424.893,319.288 426,320.5C 426.805,323.696 426.638,326.696 425.5,329.5 Z"/></g>
<g><path style="opacity:1" fill="#f0f0f0" d="M 424.5,321.5 C 425.473,323.948 425.806,326.615 425.5,329.5C 423.977,330.746 422.977,330.246 422.5,328C 423.274,325.846 423.941,323.679 424.5,321.5 Z"/></g>
<g><path style="opacity:1" fill="#dedede" d="M 188.5,320.5 C 189.158,321.793 189.492,323.293 189.5,325C 189.577,327.051 189.077,328.884 188,330.5C 186.842,330.002 186.009,329.169 185.5,328C 186.214,325.352 187.214,322.852 188.5,320.5 Z"/></g>
<g><path style="opacity:1" fill="#737373" d="M 417.5,328.5 C 417.678,329.695 418.011,330.862 418.5,332C 418.252,333.749 417.252,334.582 415.5,334.5C 415.054,331.99 415.72,329.99 417.5,328.5 Z"/></g>
<g><path style="opacity:1" fill="#898989" d="M 179.5,330.5 C 179.721,333.097 180.221,333.097 181,330.5C 181.91,332.945 181.076,334.278 178.5,334.5C 178.232,332.901 178.566,331.568 179.5,330.5 Z"/></g>
<g><path style="opacity:1" fill="#464646" d="M 389.5,331.5 C 390.797,332.849 390.63,334.182 389,335.5C 388.805,334.181 388.972,332.847 389.5,331.5 Z"/></g>
<g><path style="opacity:1" fill="#5c5c5c" d="M 152.5,332.5 C 153.797,333.849 153.63,335.182 152,336.5C 151.805,335.181 151.972,333.847 152.5,332.5 Z"/></g>
<g><path style="opacity:1" fill="#3f3f3f" d="M 152.5,338.5 C 154.976,340.121 155.142,342.121 153,344.5C 151.2,342.635 151.034,340.635 152.5,338.5 Z"/></g>
<g><path style="opacity:1" fill="#303030" d="M 389.5,338.5 C 390.793,340.364 390.793,342.364 389.5,344.5C 388.306,342.484 388.306,340.484 389.5,338.5 Z"/></g>
<g><path style="opacity:1" fill="#f2f2f2" d="M 176.5,365.5 C 179.121,365.477 180.455,366.811 180.5,369.5C 179.863,372.107 178.696,374.44 177,376.5C 176.009,375.57 175.509,374.404 175.5,373C 176.159,370.538 176.493,368.038 176.5,365.5 Z"/></g>
<g><path style="opacity:1" fill="#e4e4e4" d="M 414.5,364.5 C 418.174,368.599 417.841,372.599 413.5,376.5C 412.447,375.562 411.78,374.395 411.5,373C 411.944,369.89 412.944,367.057 414.5,364.5 Z"/></g>
<g><path style="opacity:1" fill="#363636" d="M 74.5,366.5 C 75.5983,367.601 75.765,368.934 75,370.5C 73.2317,369.318 73.0651,367.985 74.5,366.5 Z"/></g>
<g><path style="opacity:1" fill="#4d4d4d" d="M 310.5,366.5 C 311.586,366.62 312.253,367.287 312.5,368.5C 312.167,369.167 311.833,369.833 311.5,370.5C 310.571,369.311 310.238,367.978 310.5,366.5 Z"/></g>
<g><path style="opacity:1" fill="#959595" d="M 177.5,388.5 C 179.968,390.842 180.134,393.508 178,396.5C 177.503,393.854 177.336,391.187 177.5,388.5 Z"/></g>
<g><path style="opacity:1" fill="#c9c9c9" d="M 181.5,396.5 C 185.041,397.143 185.874,398.81 184,401.5C 182.628,400.09 181.795,398.423 181.5,396.5 Z"/></g>
<g><path style="opacity:1" fill="#dedede" d="M 418.5,398.5 C 419.209,397.596 420.209,397.263 421.5,397.5C 421.33,402.275 420.33,402.608 418.5,398.5 Z"/></g>
<g><path style="opacity:1" fill="#ebebeb" d="M 187.5,399.5 C 189.265,398.539 191.265,398.205 193.5,398.5C 193.477,400.927 192.977,403.26 192,405.5C 190.723,403.253 189.223,401.253 187.5,399.5 Z"/></g>
<g><path style="opacity:1" fill="#e9e9e9" d="M 424.5,399.5 C 426.265,398.539 428.265,398.205 430.5,398.5C 430.162,400.854 429.662,403.187 429,405.5C 427.637,403.316 426.137,401.316 424.5,399.5 Z"/></g>
<g><path style="opacity:1" fill="#e0e0e0" d="M 49.5,407.5 C 53.4283,408.68 55.4283,411.346 55.5,415.5C 50.1384,415.454 48.1384,412.787 49.5,407.5 Z"/></g>
<g><path style="opacity:1" fill="#f1f1f1" d="M 286.5,407.5 C 290.966,408.627 292.3,411.293 290.5,415.5C 286.906,414.112 285.573,411.445 286.5,407.5 Z"/></g>
<g><path style="opacity:1" fill="#e8e8e8" d="M 414.5,415.5 C 416.13,417.026 416.963,419.026 417,421.5C 418.011,422.337 419.178,422.67 420.5,422.5C 420.662,424.527 420.495,426.527 420,428.5C 418.817,429.731 417.651,429.731 416.5,428.5C 415.923,425.034 414.923,421.701 413.5,418.5C 414.127,417.583 414.461,416.583 414.5,415.5 Z"/></g>
<g><path style="opacity:1" fill="#e6e6e6" d="M 177.5,415.5 C 178.75,415.577 179.583,416.244 180,417.5C 180.494,419.134 180.66,420.801 180.5,422.5C 181.5,422.5 182.5,422.5 183.5,422.5C 183.662,424.527 183.495,426.527 183,428.5C 181.413,429.727 180.079,429.394 179,427.5C 178.358,423.509 177.858,419.509 177.5,415.5 Z"/></g>
<g><path style="opacity:1" fill="#f4f4f4" d="M 184.5,430.5 C 185.5,430.5 186.5,430.5 187.5,430.5C 187.585,432.929 188.585,434.929 190.5,436.5C 188.257,437.474 185.924,437.808 183.5,437.5C 183.298,435.05 183.631,432.717 184.5,430.5 Z"/></g>
<g><path style="opacity:1" fill="#e1e1e1" d="M 421.5,429.5 C 422.5,429.5 423.5,429.5 424.5,429.5C 424.146,432.421 425.146,434.754 427.5,436.5C 419.669,439.005 417.669,436.672 421.5,429.5 Z"/></g>
<g><path style="opacity:1" fill="#8c8c8c" d="M 436.5,457.5 C 435.791,458.404 434.791,458.737 433.5,458.5C 433.768,460.099 433.434,461.432 432.5,462.5C 432.5,460.833 432.5,459.167 432.5,457.5C 433.833,457.5 435.167,457.5 436.5,457.5 Z"/></g>
</svg>
