<?xml version="1.0" encoding="UTF-8"?>
<!DOCTYPE svg PUBLIC "-//W3C//DTD SVG 1.1//EN" "http://www.w3.org/Graphics/SVG/1.1/DTD/svg11.dtd">
<svg xmlns="http://www.w3.org/2000/svg" version="1.1" width="512px" height="512px" style="shape-rendering:geometricPrecision; text-rendering:geometricPrecision; image-rendering:optimizeQuality; fill-rule:evenodd; clip-rule:evenodd" xmlns:xlink="http://www.w3.org/1999/xlink">
<g><path style="opacity:1" fill="#a9a9a9" d="M 40.5,-0.5 C 183.833,-0.5 327.167,-0.5 470.5,-0.5C 491.833,5.5 505.5,19.1667 511.5,40.5C 511.5,71.5 511.5,102.5 511.5,133.5C 487.439,108.637 458.105,94.1366 423.5,90C 386.409,84.9647 351.076,90.6313 317.5,107C 298.498,115.411 281.665,126.911 267,141.5C 262.718,146.049 260.718,151.383 261,157.5C 263.56,160.962 267.06,162.296 271.5,161.5C 278.308,161.172 284.975,160.005 291.5,158C 319.925,147.644 348.925,139.311 378.5,133C 437.452,125.617 470.285,151.45 477,210.5C 480.002,241.816 476.002,272.15 465,301.5C 453.835,327.997 435.669,348.164 410.5,362C 405.36,364.269 400.027,365.935 394.5,367C 371.861,369.97 349.527,368.47 327.5,362.5C 328.919,341.649 331.753,320.983 336,300.5C 343.975,265.623 351.309,230.623 358,195.5C 358.667,188.167 358.667,180.833 358,173.5C 353.805,159.013 345.638,156.513 333.5,166C 324.192,176.104 317.026,187.604 312,200.5C 295.324,237.862 282.657,276.528 274,316.5C 271.848,326.743 270.348,337.076 269.5,347.5C 262.396,346.307 255.396,344.641 248.5,342.5C 247.832,335.8 246.999,329.133 246,322.5C 244.089,315.529 240.255,314.029 234.5,318C 223.5,329 212.5,340 201.5,351C 194.452,357.049 187.119,362.716 179.5,368C 170.928,371.959 165.761,369.126 164,359.5C 162.1,343.517 162.1,327.517 164,311.5C 167.734,276.032 174.067,241.032 183,206.5C 191.412,195.347 199.079,183.68 206,171.5C 210.212,162.199 213.212,152.532 215,142.5C 216.95,132.017 214.95,122.35 209,113.5C 191.097,83.9185 173.764,84.2518 157,114.5C 149.634,128.265 143.634,142.598 139,157.5C 133.746,176.441 128.746,195.441 124,214.5C 89.2363,203.879 57.0697,209.045 27.5,230C 17.6458,238.025 8.31251,246.525 -0.5,255.5C -0.5,183.833 -0.5,112.167 -0.5,40.5C 5.5,19.1667 19.1667,5.5 40.5,-0.5 Z"/></g>
<g><path style="opacity:1" fill="#000000" d="M 511.5,133.5 C 511.5,206.833 511.5,280.167 511.5,353.5C 472.609,404.222 420.942,427.055 356.5,422C 345.702,420.467 335.035,418.3 324.5,415.5C 322.6,416.447 321.267,417.947 320.5,420C 318.5,421 316.5,422 314.5,423C 301.777,424.853 289.777,422.853 278.5,417C 271.579,409.592 267.746,400.759 267,390.5C 255.795,383.902 245.128,376.568 235,368.5C 216.474,393.353 192.307,410.187 162.5,419C 154.869,420.309 147.203,420.642 139.5,420C 132.496,417.328 126.996,412.828 123,406.5C 119.19,398.4 116.19,390.067 114,381.5C 99.2827,405.507 77.7827,419.007 49.5,422C 31.9514,424.665 15.2848,422.165 -0.5,414.5C -0.5,361.5 -0.5,308.5 -0.5,255.5C 8.31251,246.525 17.6458,238.025 27.5,230C 57.0697,209.045 89.2363,203.879 124,214.5C 128.746,195.441 133.746,176.441 139,157.5C 143.634,142.598 149.634,128.265 157,114.5C 173.764,84.2518 191.097,83.9185 209,113.5C 214.95,122.35 216.95,132.017 215,142.5C 213.212,152.532 210.212,162.199 206,171.5C 199.079,183.68 191.412,195.347 183,206.5C 174.067,241.032 167.734,276.032 164,311.5C 162.1,327.517 162.1,343.517 164,359.5C 165.761,369.126 170.928,371.959 179.5,368C 187.119,362.716 194.452,357.049 201.5,351C 212.5,340 223.5,329 234.5,318C 240.255,314.029 244.089,315.529 246,322.5C 246.999,329.133 247.832,335.8 248.5,342.5C 255.396,344.641 262.396,346.307 269.5,347.5C 270.348,337.076 271.848,326.743 274,316.5C 282.657,276.528 295.324,237.862 312,200.5C 317.026,187.604 324.192,176.104 333.5,166C 345.638,156.513 353.805,159.013 358,173.5C 358.667,180.833 358.667,188.167 358,195.5C 351.309,230.623 343.975,265.623 336,300.5C 331.753,320.983 328.919,341.649 327.5,362.5C 349.527,368.47 371.861,369.97 394.5,367C 400.027,365.935 405.36,364.269 410.5,362C 435.669,348.164 453.835,327.997 465,301.5C 476.002,272.15 480.002,241.816 477,210.5C 470.285,151.45 437.452,125.617 378.5,133C 348.925,139.311 319.925,147.644 291.5,158C 284.975,160.005 278.308,161.172 271.5,161.5C 267.06,162.296 263.56,160.962 261,157.5C 260.718,151.383 262.718,146.049 267,141.5C 281.665,126.911 298.498,115.411 317.5,107C 351.076,90.6313 386.409,84.9647 423.5,90C 458.105,94.1366 487.439,108.637 511.5,133.5 Z"/></g>
<g><path style="opacity:1" fill="#a8a8a8" d="M 114.5,239.5 C 116.167,239.5 117.833,239.5 119.5,239.5C 114.505,268.607 111.338,297.94 110,327.5C 103.652,351.508 88.8188,367.341 65.5,375C 45.6018,378.768 34.4351,370.601 32,350.5C 29.9116,305.172 48.7449,271.672 88.5,250C 97.0939,245.977 105.761,242.477 114.5,239.5 Z"/></g>
<g><path style="opacity:0.999" fill="#a9a9a9" d="M 511.5,353.5 C 511.5,392.5 511.5,431.5 511.5,470.5C 505.5,491.833 491.833,505.5 470.5,511.5C 327.167,511.5 183.833,511.5 40.5,511.5C 19.1667,505.5 5.5,491.833 -0.5,470.5C -0.5,451.833 -0.5,433.167 -0.5,414.5C 15.2848,422.165 31.9514,424.665 49.5,422C 77.7827,419.007 99.2827,405.507 114,381.5C 116.19,390.067 119.19,398.4 123,406.5C 126.996,412.828 132.496,417.328 139.5,420C 147.203,420.642 154.869,420.309 162.5,419C 192.307,410.187 216.474,393.353 235,368.5C 245.128,376.568 255.795,383.902 267,390.5C 267.746,400.759 271.579,409.592 278.5,417C 289.777,422.853 301.777,424.853 314.5,423C 316.5,422 318.5,421 320.5,420C 321.267,417.947 322.6,416.447 324.5,415.5C 335.035,418.3 345.702,420.467 356.5,422C 420.942,427.055 472.609,404.222 511.5,353.5 Z"/></g>
</svg>
